<svg id="splitsvg" version="1.1" xmlns="http://www.w3.org/2000/svg" xmlns:xlink="http://www.w3.org/1999/xlink" width="1380" height="860"><g id="svgg"><path id="path0" d="M0.000 200.000 L 0.000 400.000 200.000 400.000 L 400.000 400.000 400.000 200.000 L 400.000 0.000 200.000 0.000 L 0.000 0.000 0.000 200.000 M250.980 98.775 C 265.294 105.278,251.658 135.609,225.994 154.353 L 223.130 156.445 222.285 159.570 C 220.277 167.006,215.026 190.957,215.342 191.245 C 215.390 191.290,216.748 190.986,218.359 190.571 C 236.843 185.810,255.473 200.592,251.413 216.797 C 248.077 230.113,229.363 247.644,211.175 254.489 L 208.874 255.355 207.244 260.197 C 199.884 282.050,186.162 296.353,168.280 300.811 C 151.530 304.986,139.095 298.482,139.067 285.531 C 139.024 265.562,169.271 263.732,170.240 283.646 C 170.565 290.343,165.789 291.038,164.851 284.430 C 163.234 273.022,146.379 273.027,144.718 284.435 C 143.697 291.453,148.518 295.113,158.789 295.116 C 173.410 295.119,183.083 287.715,189.473 271.629 C 190.417 269.252,193.750 259.889,193.750 259.612 C 193.750 259.576,190.870 259.616,187.351 259.701 C 175.028 259.998,169.490 257.879,161.498 249.808 C 148.791 236.975,146.939 221.251,156.321 205.859 C 166.166 189.709,181.492 176.953,217.338 155.073 C 218.338 154.463,218.694 153.627,220.517 147.603 C 231.703 110.645,241.730 94.573,250.980 98.775 M246.952 103.145 C 242.416 104.965,234.701 120.075,228.014 140.234 C 226.625 144.424,225.371 148.348,225.229 148.955 L 224.971 150.058 226.645 148.904 C 236.130 142.367,245.930 130.035,249.762 119.814 C 253.542 109.729,252.086 101.085,246.952 103.145 M211.882 163.724 C 190.813 178.099,174.162 195.183,167.165 209.603 C 157.843 228.816,167.869 247.478,187.500 247.455 C 195.227 247.446,197.413 246.740,198.210 243.995 C 199.246 240.426,205.154 214.396,204.969 214.215 C 204.859 214.109,201.405 216.484,193.558 222.063 C 190.123 224.506,187.253 226.446,187.181 226.374 C 187.109 226.301,187.340 222.315,187.695 217.516 L 188.340 208.789 190.166 207.097 C 193.208 204.279,200.750 198.774,204.952 196.303 L 208.916 193.974 209.366 191.616 C 210.104 187.757,213.566 172.898,215.194 166.602 C 216.028 163.379,216.671 160.698,216.624 160.645 C 216.576 160.591,214.442 161.977,211.882 163.724 M220.801 207.129 C 220.588 207.397,220.110 209.023,219.740 210.742 C 218.922 214.540,213.697 235.807,213.377 236.642 C 212.720 238.353,222.931 229.928,226.153 226.099 C 231.949 219.214,232.622 213.656,228.219 209.041 C 226.234 206.959,221.837 205.826,220.801 207.129 M208.203 271.648 C 208.203 274.531,208.306 277.211,208.431 277.605 C 208.609 278.162,208.479 278.116,207.845 277.398 C 207.118 276.574,207.031 275.983,207.031 271.832 C 207.031 268.996,206.879 267.188,206.641 267.188 C 206.426 267.188,206.250 267.012,206.250 266.797 C 206.250 266.582,206.689 266.406,207.227 266.406 L 208.203 266.406 208.203 271.648 M209.462 271.760 C 209.570 277.104,209.572 277.115,210.547 277.371 C 211.432 277.603,211.455 277.656,210.787 277.938 C 209.089 278.655,208.796 277.821,208.681 271.931 C 208.612 268.439,208.716 266.406,208.963 266.406 C 209.198 266.406,209.396 268.527,209.462 271.760 M231.023 267.815 C 231.542 268.014,231.641 268.857,231.641 273.089 L 231.641 278.125 230.664 278.125 C 229.537 278.125,229.456 277.910,230.273 277.093 C 230.716 276.650,230.859 275.554,230.859 272.616 C 230.859 269.518,230.740 268.680,230.273 268.501 C 229.635 268.256,229.468 267.578,230.046 267.578 C 230.243 267.578,230.683 267.685,231.023 267.815 M234.375 267.801 C 234.375 267.924,234.111 268.288,233.789 268.610 C 232.508 269.892,233.056 271.392,235.998 274.649 C 237.535 276.352,238.702 277.834,238.593 277.944 C 238.180 278.356,237.246 277.610,235.352 275.356 L 233.398 273.031 233.276 274.882 C 233.188 276.216,233.324 276.856,233.764 277.179 C 234.683 277.850,234.502 278.191,233.301 278.053 L 232.227 277.930 232.227 273.271 C 232.227 269.931,232.373 268.466,232.743 268.095 C 233.258 267.579,234.375 267.378,234.375 267.801 M240.625 267.969 C 240.625 268.077,239.849 268.577,238.901 269.080 C 237.953 269.583,236.781 270.416,236.297 270.931 L 235.417 271.869 237.533 274.155 C 238.696 275.413,240.044 276.674,240.527 276.959 C 241.011 277.243,241.406 277.622,241.406 277.800 C 241.406 279.043,239.359 277.741,236.802 274.872 L 233.956 271.680 235.557 270.309 C 236.571 269.441,237.075 268.726,236.934 268.356 C 236.754 267.887,237.093 267.773,238.668 267.773 C 239.744 267.773,240.625 267.862,240.625 267.969 M229.297 271.074 C 229.404 271.094,229.100 271.415,228.621 271.786 C 228.141 272.157,227.160 273.565,226.440 274.915 L 225.131 277.369 223.210 274.524 C 220.763 270.901,220.815 271.094,222.281 271.094 C 223.255 271.094,223.441 271.205,223.118 271.594 C 222.812 271.962,222.981 272.532,223.753 273.740 C 225.029 275.735,225.079 275.742,225.904 274.010 C 226.657 272.431,226.749 271.484,226.149 271.484 C 225.921 271.484,225.816 271.353,225.916 271.191 C 226.059 270.960,228.285 270.883,229.297 271.074 M252.734 274.655 C 252.734 277.829,252.670 278.125,251.976 278.125 C 251.013 278.125,250.600 277.497,251.369 277.202 C 251.805 277.034,251.953 276.328,251.953 274.414 C 251.953 272.500,251.805 271.794,251.369 271.626 C 250.522 271.301,251.030 270.739,251.954 270.981 C 252.660 271.166,252.734 271.514,252.734 274.655 M216.328 271.563 C 216.612 271.846,216.797 273.222,216.797 275.044 L 216.797 278.057 215.527 277.951 C 213.652 277.795,213.673 277.806,213.322 276.855 C 212.850 275.582,213.612 274.211,214.938 273.946 C 215.800 273.773,216.029 273.534,215.938 272.896 C 215.811 272.008,214.274 271.802,212.695 272.462 C 211.925 272.784,211.924 272.777,212.658 271.941 C 213.483 271.002,215.554 270.788,216.328 271.563 M218.359 275.043 C 218.359 276.317,218.534 277.344,218.750 277.344 C 218.965 277.344,219.141 277.520,219.141 277.734 C 219.141 278.302,217.583 278.215,217.394 277.637 C 216.777 275.749,216.999 271.063,217.667 271.887 C 218.155 272.490,218.359 273.423,218.359 275.043 M222.727 274.489 L 224.947 277.870 224.180 279.373 L 223.413 280.876 224.304 281.216 C 225.169 281.546,225.161 281.564,224.023 281.826 C 223.379 281.975,222.632 282.164,222.363 282.247 C 221.632 282.472,221.766 281.837,222.886 279.764 L 223.896 277.892 222.258 275.372 C 221.357 273.986,220.155 272.457,219.587 271.975 L 218.555 271.098 219.531 271.103 C 220.324 271.108,220.925 271.744,222.727 274.489 M247.823 271.707 C 248.666 272.550,248.961 273.950,248.661 275.686 C 248.479 276.742,248.520 276.985,248.808 276.563 C 249.326 275.801,249.330 273.594,248.814 272.631 C 248.530 272.099,248.536 271.875,248.834 271.875 C 250.175 271.875,250.509 276.818,249.181 277.002 C 248.987 277.029,248.661 277.073,248.457 277.100 C 248.253 277.126,247.866 277.368,247.598 277.637 C 245.987 279.247,242.969 277.353,242.969 274.733 C 242.969 271.599,245.893 269.777,247.823 271.707 M257.734 271.563 C 258.399 272.228,258.381 278.250,257.715 278.027 C 257.387 277.917,257.222 276.946,257.212 275.069 C 257.194 271.861,256.853 271.275,255.337 271.851 C 254.014 272.354,253.736 276.599,254.980 277.298 C 255.632 277.664,255.632 277.694,254.980 277.945 C 253.445 278.537,253.125 277.930,253.125 274.426 L 253.125 271.094 255.195 271.094 C 256.334 271.094,257.477 271.305,257.734 271.563 M259.287 273.859 C 259.369 275.770,259.574 276.518,260.149 277.002 C 261.023 277.737,260.800 278.125,259.505 278.125 C 258.632 278.125,258.594 278.003,258.594 275.227 C 258.594 273.634,258.478 272.027,258.336 271.658 C 258.155 271.187,258.243 271.041,258.629 271.169 C 259.011 271.295,259.213 272.121,259.287 273.859 M242.935 272.718 C 242.665 273.224,242.575 274.334,242.712 275.489 C 242.907 277.135,242.859 277.348,242.379 276.950 C 241.456 276.184,241.228 273.963,241.957 272.850 C 242.754 271.633,243.575 271.523,242.935 272.718 M244.609 272.344 C 243.808 273.146,244.015 276.468,244.896 276.939 C 246.468 277.780,247.656 276.838,247.656 274.751 C 247.656 272.268,245.996 270.957,244.609 272.344 M212.864 275.049 C 212.541 275.652,212.535 276.134,212.842 276.807 C 213.294 277.799,212.957 278.035,212.188 277.266 C 211.303 276.381,211.867 274.219,212.982 274.219 C 213.162 274.219,213.109 274.593,212.864 275.049 M214.531 275.078 C 213.868 275.741,213.950 276.826,214.684 277.108 C 215.605 277.461,216.016 277.045,216.016 275.758 C 216.016 274.552,215.359 274.251,214.531 275.078  M -25 0 L -5 0 L -5 20 L -25 20 Z M 405 0 L 425 0 L 425 20 L 405 20 Z" stroke="none" fill="#232324" fill-rule="evenodd" transform="translate(30,0)"></path><path id="path1" d="M244.721 99.269 C 237.279 103.246,229.292 119.351,220.701 147.699 L 218.616 154.577 211.164 159.199 C 159.990 190.936,142.643 214.729,153.549 238.220 C 160.643 253.502,174.368 261.357,190.625 259.441 C 194.697 258.961,194.482 258.330,192.349 264.495 C 187.559 278.336,184.522 283.563,178.414 288.480 C 162.683 301.141,138.583 295.996,145.462 281.445 C 150.001 271.844,165.234 274.874,165.234 285.379 C 165.234 287.013,166.357 288.379,167.698 288.379 C 169.576 288.379,169.922 287.720,169.922 284.147 C 169.922 267.165,144.795 264.247,140.019 280.674 C 136.939 291.270,143.929 300.866,155.333 301.698 C 178.041 303.353,199.832 285.323,207.586 258.464 L 208.489 255.336 212.741 253.498 C 230.961 245.622,246.995 230.685,250.793 218.048 C 255.790 201.422,237.434 185.904,218.555 190.795 C 216.621 191.296,215.008 191.680,214.969 191.649 C 214.568 191.322,222.265 157.413,222.961 156.443 C 223.115 156.227,224.976 154.759,227.096 153.180 C 243.287 141.116,256.641 121.400,256.641 109.559 C 256.641 101.619,250.402 96.233,244.721 99.269 M250.352 100.566 C 254.715 102.822,256.077 108.696,253.890 115.820 C 253.005 118.701,248.976 127.381,247.905 128.711 C 247.560 129.141,248.145 127.734,249.205 125.586 C 253.982 115.911,255.121 107.374,252.212 103.057 C 246.079 93.957,234.103 112.638,223.645 147.614 C 221.802 153.781,221.913 154.532,224.428 152.885 C 224.957 152.538,225.391 152.344,225.391 152.453 C 225.391 152.563,224.519 153.212,223.454 153.895 C 222.389 154.579,221.428 155.432,221.318 155.792 C 220.883 157.217,218.396 167.216,217.561 170.898 C 215.122 181.661,214.855 182.521,214.106 182.058 C 213.497 181.682,214.745 175.681,217.928 163.672 C 218.982 159.697,219.812 156.410,219.773 156.368 C 219.197 155.741,199.956 169.724,192.578 176.132 C 168.706 196.864,158.645 215.087,162.362 230.859 C 162.691 232.256,163.028 234.102,163.110 234.961 C 163.192 235.820,163.340 237.365,163.439 238.394 C 163.537 239.423,163.986 241.444,164.435 242.886 C 164.884 244.328,165.547 246.453,165.909 247.608 C 166.271 248.763,166.895 250.125,167.296 250.635 C 167.697 251.145,167.894 251.563,167.734 251.563 C 167.573 251.563,167.855 252.002,168.359 252.539 C 169.899 254.178,168.855 253.634,165.938 251.277 C 151.871 239.912,148.553 223.804,157.091 208.339 C 165.536 193.043,180.428 180.285,215.060 158.676 L 220.160 155.494 221.061 152.259 C 230.694 117.685,242.651 96.583,250.352 100.566 M250.366 103.431 C 257.630 110.695,245.019 135.370,227.145 148.865 C 224.359 150.969,224.370 151.007,226.114 145.291 C 232.224 125.266,240.787 107.051,245.619 103.798 C 248.231 102.040,248.922 101.987,250.366 103.431 M216.998 160.840 C 216.443 162.233,212.902 176.628,211.162 184.570 C 210.173 189.082,209.280 193.125,209.176 193.555 C 209.061 194.035,207.730 195.048,205.727 196.183 C 201.738 198.442,195.324 202.998,191.459 206.318 C 188.598 208.776,188.582 208.800,188.455 210.938 C 188.385 212.119,188.118 215.861,187.862 219.252 C 187.606 222.643,187.497 225.517,187.619 225.640 C 187.741 225.762,190.884 223.680,194.604 221.014 C 203.049 214.961,205.098 213.561,205.264 213.732 C 205.442 213.917,202.049 229.370,199.810 238.569 L 197.981 246.083 195.983 246.676 C 174.920 252.931,157.804 235.086,164.921 214.292 C 170.101 199.161,187.364 180.426,211.759 163.464 C 216.643 160.069,217.472 159.653,216.998 160.840 M226.835 207.544 C 232.020 210.276,232.599 217.521,228.148 223.990 C 225.738 227.493,213.800 238.201,213.127 237.462 C 213.048 237.376,213.824 234.011,214.851 229.985 C 215.878 225.959,217.557 219.068,218.582 214.671 C 220.656 205.780,220.365 206.224,223.828 206.663 C 224.795 206.785,226.148 207.182,226.835 207.544 M206.641 266.774 C 206.641 266.976,206.816 267.250,207.031 267.383 C 207.258 267.523,207.422 269.658,207.422 272.461 C 207.422 275.732,207.570 277.389,207.879 277.580 C 208.190 277.773,208.253 277.646,208.074 277.181 C 207.930 276.805,207.813 274.228,207.813 271.452 C 207.813 267.227,207.717 266.406,207.227 266.406 C 206.904 266.406,206.641 266.572,206.641 266.774 M208.594 271.652 C 208.594 276.982,208.899 278.149,210.282 278.113 C 210.535 278.107,210.435 277.922,210.059 277.703 C 209.459 277.354,209.375 276.633,209.375 271.856 C 209.375 268.483,209.226 266.406,208.984 266.406 C 208.743 266.406,208.594 268.415,208.594 271.652 M230.391 268.438 C 230.693 268.740,230.859 270.304,230.859 272.852 C 230.859 275.399,230.693 276.963,230.391 277.266 C 230.026 277.630,230.113 277.734,230.781 277.734 C 231.621 277.734,231.641 277.622,231.641 272.852 C 231.641 268.081,231.621 267.969,230.781 267.969 C 230.113 267.969,230.026 268.073,230.391 268.438 M232.422 272.852 C 232.422 277.657,232.436 277.734,233.301 277.728 C 233.820 277.725,233.998 277.605,233.734 277.435 C 233.254 277.126,232.830 273.046,233.278 273.047 C 233.426 273.047,234.476 274.102,235.611 275.391 C 236.745 276.680,237.823 277.734,238.006 277.734 C 238.419 277.734,237.200 276.163,234.892 273.720 C 233.221 271.950,233.136 271.753,233.264 269.911 C 233.358 268.545,233.253 267.968,232.910 267.969 C 232.546 267.969,232.422 269.206,232.422 272.852 M237.332 268.403 C 237.484 268.649,236.867 269.469,235.908 270.296 L 234.215 271.753 236.923 274.744 C 238.413 276.389,239.924 277.734,240.282 277.734 C 240.681 277.734,239.815 276.650,238.044 274.934 C 234.572 271.567,234.603 271.890,237.543 269.726 L 239.930 267.969 238.496 267.969 C 237.544 267.969,237.153 268.115,237.332 268.403 M213.281 271.680 C 212.143 272.330,212.410 272.429,213.838 271.886 C 216.140 271.011,216.976 273.179,214.738 274.219 C 212.452 275.281,212.968 277.734,215.478 277.734 L 216.797 277.734 216.797 275.028 C 216.797 271.322,215.713 270.290,213.281 271.680 M219.531 271.497 C 219.531 271.705,219.683 271.875,219.868 271.875 C 220.054 271.875,221.088 273.261,222.167 274.956 L 224.128 278.037 223.035 280.034 C 222.435 281.133,222.060 282.029,222.202 282.026 C 223.223 282.005,224.228 281.497,223.788 281.225 C 223.397 280.983,223.437 280.598,223.978 279.397 L 224.664 277.876 222.648 274.708 C 220.819 271.834,219.531 270.507,219.531 271.497 M222.035 271.398 C 221.758 271.581,222.217 272.615,223.348 274.355 L 225.086 277.030 226.455 274.561 C 227.208 273.202,228.111 271.872,228.463 271.605 C 229.007 271.190,228.879 271.117,227.589 271.106 C 226.337 271.096,226.154 271.188,226.529 271.639 C 226.970 272.171,225.632 275.781,224.994 275.781 C 224.709 275.781,222.937 272.756,222.656 271.789 C 222.547 271.412,222.274 271.241,222.035 271.398 M244.262 271.678 C 242.309 273.046,242.938 277.348,245.173 277.909 C 246.960 278.357,248.218 277.091,248.359 274.701 C 248.537 271.687,246.449 270.146,244.262 271.678 M251.758 274.414 C 251.758 276.810,251.894 277.734,252.246 277.734 C 252.598 277.734,252.734 276.810,252.734 274.414 C 252.734 272.018,252.598 271.094,252.246 271.094 C 251.894 271.094,251.758 272.018,251.758 274.414 M253.517 274.512 C 253.516 277.149,253.625 277.734,254.115 277.734 C 254.587 277.734,254.629 277.573,254.311 276.979 C 253.555 275.568,253.805 272.347,254.708 271.864 C 256.650 270.825,257.208 271.424,257.448 274.805 L 257.669 277.930 257.741 274.714 C 257.820 271.145,257.718 271.024,254.786 271.209 L 253.517 271.289 253.517 274.512 M160.742 272.610 C 163.396 273.884,166.099 276.401,167.295 278.711 C 168.359 280.768,168.785 286.719,167.868 286.719 C 167.269 286.719,166.812 285.618,166.802 284.153 C 166.728 272.844,148.395 270.367,143.726 281.035 C 139.121 291.555,149.599 299.515,164.591 296.887 C 174.859 295.087,183.650 288.185,188.804 277.876 L 190.589 274.307 192.414 275.231 C 193.418 275.739,194.833 276.266,195.557 276.402 C 197.345 276.738,197.240 277.202,194.573 280.742 C 177.267 303.708,142.444 307.455,141.099 286.494 C 140.409 275.747,151.276 268.066,160.742 272.610 M217.324 272.266 C 217.458 272.803,217.570 274.253,217.573 275.488 C 217.576 276.724,217.710 277.735,217.871 277.735 C 218.316 277.737,217.968 272.127,217.495 271.680 C 217.207 271.408,217.155 271.587,217.324 272.266 M246.719 271.783 C 248.906 273.244,248.151 277.344,245.695 277.344 C 243.258 277.344,242.934 272.605,245.313 271.755 C 246.140 271.460,246.237 271.462,246.719 271.783 M258.823 274.324 C 258.894 275.878,258.960 277.280,258.968 277.441 C 258.977 277.603,259.283 277.734,259.648 277.734 C 260.165 277.734,260.208 277.630,259.844 277.266 C 259.579 277.001,259.375 275.734,259.375 274.359 C 259.375 273.018,259.222 271.826,259.035 271.711 C 258.847 271.595,258.752 272.771,258.823 274.324 M249.161 274.462 C 249.252 275.936,249.413 276.494,249.643 276.131 C 250.144 275.340,250.076 273.692,249.512 272.918 C 249.104 272.359,249.046 272.615,249.161 274.462 M242.057 272.917 C 241.525 273.449,241.802 276.080,242.447 276.612 C 243.040 277.101,243.053 277.066,242.600 276.216 C 242.321 275.694,242.197 274.705,242.316 273.970 C 242.536 272.614,242.501 272.473,242.057 272.917 M212.125 275.177 C 211.866 275.489,211.768 276.104,211.908 276.544 C 212.300 277.778,212.695 277.493,212.695 275.977 C 212.695 274.395,212.732 274.446,212.125 275.177 M216.016 275.977 C 216.016 277.506,214.826 277.941,214.115 276.670 C 213.614 275.774,214.254 274.609,215.248 274.609 C 215.865 274.609,216.016 274.878,216.016 275.977  M -25 0 L -5 0 L -5 20 L -25 20 Z M 405 0 L 425 0 L 425 20 L 405 20 Z" stroke="none" fill="#ebe8f0" fill-rule="evenodd" transform="translate(490,0)"></path><path id="path2" d="M246.484 100.391 C 246.484 100.605,246.127 100.781,245.690 100.781 C 240.654 100.781,230.263 121.736,222.639 147.266 C 222.158 148.877,221.355 151.514,220.855 153.125 C 220.356 154.736,219.398 158.164,218.727 160.742 C 218.055 163.320,217.087 167.012,216.574 168.945 C 216.061 170.879,215.281 174.219,214.840 176.367 C 214.399 178.516,213.957 180.651,213.858 181.112 C 213.751 181.611,213.901 182.036,214.231 182.162 C 214.771 182.369,214.936 181.794,217.574 170.508 C 218.372 167.094,220.355 159.113,220.679 158.008 C 220.869 157.363,221.131 156.353,221.261 155.762 C 221.394 155.163,221.763 154.688,222.095 154.688 C 222.554 154.688,222.639 154.395,222.463 153.418 C 222.305 152.538,222.709 150.590,223.778 147.070 C 225.589 141.106,228.005 133.728,228.510 132.617 C 228.705 132.188,229.338 130.605,229.915 129.102 C 237.247 110.014,243.355 100.781,248.651 100.781 C 249.482 100.781,249.948 100.623,249.805 100.391 C 249.672 100.176,248.871 100.000,248.024 100.000 C 247.177 100.000,246.484 100.176,246.484 100.391 M250.781 100.955 C 250.781 101.131,251.090 101.560,251.468 101.907 C 252.129 102.516,252.529 103.252,253.467 105.585 C 254.238 107.503,254.010 111.500,252.828 116.797 C 252.804 116.904,252.664 117.307,252.516 117.693 C 252.368 118.078,252.357 118.503,252.491 118.637 C 252.864 119.010,253.114 118.597,253.209 117.449 C 253.257 116.875,253.400 116.406,253.527 116.406 C 254.012 116.406,254.778 112.314,254.795 109.633 C 254.813 106.809,254.149 103.906,253.485 103.906 C 253.287 103.906,253.125 103.675,253.125 103.393 C 253.125 103.111,252.598 102.375,251.953 101.758 C 251.309 101.140,250.781 100.779,250.781 100.955 M251.685 120.215 C 251.552 120.591,251.368 121.074,251.278 121.289 C 251.188 121.504,251.391 121.338,251.729 120.921 C 252.343 120.164,252.528 119.531,252.136 119.531 C 252.022 119.531,251.819 119.839,251.685 120.215 M210.156 161.814 C 209.404 162.240,208.701 162.701,208.594 162.838 C 208.486 162.975,207.918 163.335,207.331 163.637 C 206.744 163.940,205.916 164.511,205.492 164.906 C 205.067 165.302,204.615 165.625,204.487 165.625 C 204.359 165.625,203.253 166.289,202.029 167.100 C 200.806 167.912,199.324 168.819,198.737 169.116 C 198.150 169.413,197.322 169.980,196.898 170.375 C 196.474 170.770,195.943 171.094,195.719 171.094 C 195.496 171.094,195.313 171.270,195.313 171.484 C 195.313 171.699,195.049 171.875,194.727 171.875 C 194.404 171.875,194.141 172.013,194.141 172.181 C 194.141 172.350,193.620 172.796,192.983 173.172 C 192.346 173.548,191.599 174.069,191.323 174.330 C 191.046 174.591,190.340 175.053,189.753 175.355 C 189.165 175.658,188.374 176.190,187.995 176.538 C 187.615 176.885,186.689 177.599,185.938 178.123 C 185.186 178.647,184.378 179.257,184.144 179.479 C 183.909 179.701,183.132 180.322,182.416 180.859 C 181.700 181.396,180.714 182.231,180.224 182.715 C 179.733 183.198,179.224 183.594,179.091 183.594 C 178.959 183.594,178.613 183.813,178.323 184.082 C 178.033 184.351,176.704 185.537,175.370 186.719 C 171.300 190.323,168.391 193.260,168.642 193.512 C 168.773 193.643,168.587 193.750,168.229 193.750 C 167.871 193.750,167.578 193.882,167.578 194.043 C 167.577 194.204,166.613 195.391,165.435 196.680 C 164.257 197.969,163.291 199.179,163.287 199.368 C 163.284 199.558,162.936 200.013,162.513 200.379 C 160.833 201.836,156.812 208.484,154.893 212.975 C 150.968 222.162,151.640 232.510,156.684 240.567 C 158.853 244.031,163.870 250.000,164.613 250.000 C 164.744 250.000,165.403 250.527,166.077 251.172 C 167.929 252.942,168.482 252.529,167.122 250.391 C 166.469 249.364,165.885 247.748,164.472 243.048 C 163.706 240.501,163.441 238.921,163.112 234.961 C 163.059 234.316,162.695 232.646,162.304 231.250 C 161.380 227.953,161.341 219.943,162.233 216.797 C 163.382 212.749,163.578 212.254,165.752 207.914 C 168.169 203.090,168.761 202.002,169.336 201.332 C 169.551 201.082,169.990 200.484,170.313 200.003 C 171.916 197.609,175.958 192.517,178.320 189.912 C 182.048 185.802,192.344 175.781,192.840 175.781 C 192.972 175.781,193.583 175.254,194.199 174.609 C 194.815 173.965,195.418 173.438,195.539 173.438 C 195.660 173.438,195.982 173.218,196.255 172.949 C 196.528 172.681,197.330 172.021,198.037 171.484 C 198.744 170.947,199.637 170.235,200.022 169.902 C 200.406 169.569,201.822 168.515,203.168 167.559 C 204.514 166.603,205.989 165.469,206.445 165.039 C 206.902 164.609,207.747 164.008,208.325 163.704 C 208.902 163.399,209.375 163.003,209.375 162.825 C 209.375 162.646,209.595 162.494,209.863 162.488 C 210.434 162.473,211.935 161.405,211.690 161.188 C 211.598 161.107,210.908 161.389,210.156 161.814 M151.953 271.829 C 137.305 275.076,137.453 295.208,152.156 299.597 C 156.589 300.920,172.424 298.718,174.785 296.450 C 174.989 296.254,175.458 296.094,175.827 296.094 C 176.196 296.094,176.556 295.962,176.628 295.801 C 176.699 295.640,177.944 294.908,179.395 294.175 C 180.845 293.441,182.031 292.694,182.031 292.514 C 182.031 292.335,182.295 292.188,182.617 292.188 C 182.939 292.188,183.203 292.050,183.203 291.881 C 183.203 291.713,183.739 291.258,184.394 290.871 C 188.932 288.191,198.495 276.584,196.191 276.553 C 195.815 276.548,194.530 276.142,193.335 275.650 C 190.536 274.499,190.465 274.536,188.816 278.011 C 186.460 282.977,184.086 286.121,180.469 289.069 C 179.287 290.032,178.010 291.100,177.630 291.441 C 177.251 291.783,176.460 292.310,175.872 292.613 C 175.285 292.915,174.717 293.261,174.609 293.381 C 171.528 296.815,158.232 298.510,150.977 296.394 C 140.851 293.440,139.835 280.284,149.328 275.035 C 151.026 274.096,157.292 273.862,159.259 274.664 C 162.194 275.861,162.967 276.283,163.867 277.183 C 165.521 278.838,166.278 280.794,166.989 285.254 C 167.507 288.502,168.499 287.054,168.243 283.424 C 167.891 278.437,163.675 272.656,160.389 272.656 C 160.082 272.656,159.772 272.488,159.701 272.281 C 159.528 271.785,153.691 271.444,151.953 271.829  M -25 0 L -5 0 L -5 20 L -25 20 Z M 405 0 L 425 0 L 425 20 L 405 20 Z" stroke="none" fill="#7136ef" fill-rule="evenodd" transform="translate(950,0)"></path><path id="path3" d="M256.758 109.375 C 256.758 110.557,256.831 111.040,256.920 110.449 C 257.010 109.858,257.010 108.892,256.920 108.301 C 256.831 107.710,256.758 108.193,256.758 109.375 M184.950 185.645 L 182.227 188.477 185.059 185.753 C 186.616 184.255,187.891 182.980,187.891 182.921 C 187.891 182.634,187.480 183.014,184.950 185.645 M168.933 189.941 L 166.602 192.383 169.043 190.051 C 171.311 187.886,171.663 187.500,171.374 187.500 C 171.314 187.500,170.215 188.599,168.933 189.941 M223.535 189.722 C 223.911 189.821,224.526 189.821,224.902 189.722 C 225.278 189.624,224.971 189.544,224.219 189.544 C 223.467 189.544,223.159 189.624,223.535 189.722 M163.406 223.828 C 163.406 225.225,163.477 225.796,163.564 225.098 C 163.650 224.399,163.650 223.257,163.564 222.559 C 163.477 221.860,163.406 222.432,163.406 223.828 M238.661 236.230 L 236.133 238.867 238.770 236.339 C 240.220 234.949,241.406 233.763,241.406 233.703 C 241.406 233.415,241.008 233.781,238.661 236.230 M186.626 247.933 C 187.112 248.026,187.815 248.022,188.188 247.925 C 188.562 247.827,188.164 247.750,187.305 247.755 C 186.445 247.759,186.140 247.839,186.626 247.933 M161.523 250.000 C 162.582 251.074,163.535 251.953,163.643 251.953 C 163.750 251.953,162.972 251.074,161.914 250.000 C 160.856 248.926,159.902 248.047,159.795 248.047 C 159.688 248.047,160.465 248.926,161.523 250.000 M207.966 271.484 C 207.966 274.385,208.027 275.571,208.102 274.121 C 208.177 272.671,208.177 270.298,208.102 268.848 C 208.027 267.397,207.966 268.584,207.966 271.484 M253.295 274.410 C 253.321 277.976,253.910 279.059,255.149 277.820 C 255.394 277.575,255.177 277.508,254.538 277.630 L 253.547 277.819 253.408 274.359 L 253.269 270.898 253.295 274.410 M218.090 274.805 C 218.092 276.094,218.165 276.574,218.252 275.872 C 218.339 275.170,218.337 274.115,218.248 273.528 C 218.159 272.941,218.088 273.516,218.090 274.805 M235.391 273.765 C 235.266 273.966,235.411 274.334,235.712 274.584 C 236.035 274.852,236.351 274.889,236.484 274.673 C 236.609 274.472,236.464 274.103,236.163 273.853 C 235.840 273.585,235.524 273.549,235.391 273.765 M243.841 274.609 C 243.841 275.361,243.921 275.669,244.019 275.293 C 244.118 274.917,244.118 274.302,244.019 273.926 C 243.921 273.550,243.841 273.857,243.841 274.609 M257.172 276.532 C 257.205 277.355,257.452 277.930,257.813 278.027 C 258.208 278.133,258.251 278.079,257.945 277.861 C 257.696 277.682,257.408 277.010,257.304 276.366 C 257.132 275.294,257.121 275.308,257.172 276.532 M229.688 277.789 C 229.688 277.974,230.127 278.125,230.664 278.125 C 231.201 278.125,231.641 278.058,231.641 277.975 C 231.641 277.893,231.201 277.741,230.664 277.639 C 230.127 277.536,229.688 277.603,229.688 277.789 M240.234 277.734 L 239.258 278.047 240.332 278.086 C 240.923 278.107,241.406 277.949,241.406 277.734 C 241.406 277.520,241.362 277.361,241.309 277.383 C 241.255 277.404,240.771 277.562,240.234 277.734 M259.570 277.734 L 258.398 278.033 259.450 278.079 C 260.028 278.104,260.609 277.949,260.742 277.734 C 260.875 277.520,260.929 277.365,260.863 277.390 C 260.797 277.415,260.215 277.570,259.570 277.734 M158.112 295.596 C 158.815 295.683,159.869 295.681,160.456 295.592 C 161.043 295.502,160.469 295.431,159.180 295.434 C 157.891 295.436,157.410 295.509,158.112 295.596  M -25 0 L -5 0 L -5 20 L -25 20 Z M 405 0 L 425 0 L 425 20 L 405 20 Z" stroke="none" fill="#6e7074" fill-rule="evenodd" transform="translate(30,460)"></path><path id="path4" d="M248.524 126.881 C 247.819 128.317,247.526 129.141,247.871 128.711 C 248.771 127.592,250.460 124.214,250.104 124.245 C 249.939 124.259,249.228 125.446,248.524 126.881 M235.145 141.699 L 232.617 144.336 235.254 141.808 C 236.704 140.418,237.891 139.231,237.891 139.171 C 237.891 138.884,237.493 139.250,235.145 141.699 M236.505 145.020 L 234.961 146.680 236.621 145.136 C 238.165 143.700,238.461 143.359,238.165 143.359 C 238.101 143.359,237.354 144.106,236.505 145.020 M223.834 153.147 C 223.086 153.565,222.734 153.902,223.053 153.898 C 223.372 153.893,224.072 153.545,224.609 153.125 C 225.836 152.165,225.582 152.173,223.834 153.147 M189.041 181.543 L 187.695 183.008 189.160 181.662 C 189.966 180.921,190.625 180.262,190.625 180.197 C 190.625 179.899,190.294 180.180,189.041 181.543 M181.030 189.551 L 179.883 190.820 181.152 189.673 C 181.851 189.042,182.422 188.471,182.422 188.403 C 182.422 188.102,182.100 188.367,181.030 189.551 M251.691 211.914 C 251.692 213.418,251.763 213.985,251.848 213.175 C 251.932 212.364,251.931 211.134,251.844 210.441 C 251.758 209.747,251.689 210.410,251.691 211.914 M150.489 223.633 C 150.493 224.492,150.573 224.798,150.667 224.312 C 150.760 223.826,150.757 223.123,150.659 222.749 C 150.561 222.376,150.485 222.773,150.489 223.633 M150.489 227.148 C 150.493 228.008,150.573 228.313,150.667 227.827 C 150.760 227.342,150.757 226.638,150.659 226.265 C 150.561 225.892,150.485 226.289,150.489 227.148 M223.999 228.613 L 222.852 229.883 224.121 228.736 C 224.819 228.104,225.391 227.533,225.391 227.466 C 225.391 227.164,225.068 227.430,223.999 228.613 M170.117 241.016 C 170.956 241.875,171.731 242.578,171.838 242.578 C 171.946 242.578,171.347 241.875,170.508 241.016 C 169.669 240.156,168.894 239.453,168.787 239.453 C 168.679 239.453,169.278 240.156,170.117 241.016 M167.969 252.930 C 168.236 253.252,168.631 253.516,168.846 253.516 C 169.064 253.516,169.021 253.257,168.750 252.930 C 168.483 252.607,168.088 252.344,167.873 252.344 C 167.655 252.344,167.697 252.603,167.969 252.930 M207.177 271.680 C 207.178 274.043,207.243 274.959,207.320 273.716 C 207.398 272.473,207.397 270.539,207.319 269.419 C 207.240 268.299,207.176 269.316,207.177 271.680 M237.063 267.871 C 237.038 268.032,237.044 268.314,237.077 268.498 C 237.110 268.682,236.911 269.121,236.635 269.475 C 236.191 270.042,236.209 270.057,236.790 269.603 C 237.152 269.320,237.422 268.749,237.391 268.333 C 237.334 267.578,237.150 267.319,237.063 267.871 M235.156 271.997 C 235.156 272.064,235.728 272.636,236.426 273.267 L 237.695 274.414 236.548 273.145 C 235.479 271.961,235.156 271.695,235.156 271.997 M254.027 274.414 C 254.029 275.703,254.102 276.183,254.189 275.481 C 254.276 274.779,254.274 273.725,254.185 273.138 C 254.096 272.551,254.025 273.125,254.027 274.414 M257.944 275.000 C 257.944 276.611,258.013 277.271,258.097 276.465 C 258.181 275.659,258.181 274.341,258.097 273.535 C 258.013 272.729,257.944 273.389,257.944 275.000 M217.316 275.195 C 217.317 276.699,217.388 277.267,217.473 276.456 C 217.557 275.646,217.556 274.415,217.469 273.722 C 217.383 273.028,217.314 273.691,217.316 275.195 M242.278 274.609 C 242.278 275.361,242.359 275.669,242.457 275.293 C 242.555 274.917,242.555 274.302,242.457 273.926 C 242.359 273.550,242.278 273.857,242.278 274.609 M258.684 275.391 C 258.684 276.143,258.765 276.450,258.863 276.074 C 258.961 275.698,258.961 275.083,258.863 274.707 C 258.765 274.331,258.684 274.639,258.684 275.391 M170.043 284.570 C 170.045 285.859,170.118 286.340,170.205 285.638 C 170.292 284.935,170.290 283.881,170.201 283.294 C 170.112 282.707,170.041 283.281,170.043 284.570 M139.161 285.742 C 139.165 286.602,139.245 286.907,139.339 286.421 C 139.432 285.935,139.429 285.232,139.331 284.859 C 139.233 284.485,139.157 284.883,139.161 285.742 M181.229 285.840 L 179.883 287.305 181.348 285.959 C 182.711 284.706,182.992 284.375,182.694 284.375 C 182.629 284.375,181.969 285.034,181.229 285.840 M190.806 287.598 L 188.867 289.648 190.918 287.710 C 192.046 286.644,192.969 285.721,192.969 285.659 C 192.969 285.368,192.607 285.692,190.806 287.598 M157.706 297.548 C 158.400 297.634,159.630 297.635,160.441 297.551 C 161.251 297.466,160.684 297.396,159.180 297.394 C 157.676 297.392,157.013 297.461,157.706 297.548 M154.785 301.832 C 155.161 301.930,155.776 301.930,156.152 301.832 C 156.528 301.734,156.221 301.653,155.469 301.653 C 154.717 301.653,154.409 301.734,154.785 301.832 M159.863 301.832 C 160.239 301.930,160.854 301.930,161.230 301.832 C 161.606 301.734,161.299 301.653,160.547 301.653 C 159.795 301.653,159.487 301.734,159.863 301.832  M -25 0 L -5 0 L -5 20 L -25 20 Z M 405 0 L 425 0 L 425 20 L 405 20 Z" stroke="none" fill="#8c9494" fill-rule="evenodd" transform="translate(490,460)"></path></g></svg>